<svg width="383" height="383" viewBox="0 0 383 383" fill="none" xmlns="http://www.w3.org/2000/svg">
<path d="M191.2 0.5C194.133 0.500042 196.991 1.5158 199.828 3.1123C202.668 4.71004 205.454 6.87086 208.248 9.12695C211.03 11.3737 213.825 13.7201 216.639 15.6426C219.453 17.5655 222.33 19.0951 225.301 19.6895V19.6904C228.37 20.3094 231.683 20.0205 235.066 19.335C238.448 18.6498 241.948 17.5571 245.379 16.542C248.824 15.5228 252.206 14.5804 255.403 14.1689C258.599 13.7578 261.57 13.8832 264.21 14.9629C266.9 16.0679 269.13 18.0833 271.12 20.6338C273.112 23.1864 274.842 26.244 276.548 29.4004C278.247 32.5436 279.926 35.7914 281.798 38.665C283.671 41.5403 285.765 44.0854 288.319 45.8145L288.321 45.8154C290.901 47.5438 294.058 48.5353 297.435 49.1924C300.81 49.8491 304.454 50.1797 308.01 50.5596C311.58 50.9409 315.065 51.3724 318.183 52.2246C321.103 53.0231 323.667 54.1825 325.658 55.9863L326.049 56.3555C328.089 58.3964 329.362 61.1051 330.218 64.2188C331.074 67.3357 331.503 70.8202 331.878 74.3896C332.251 77.9447 332.573 81.5896 333.222 84.9648C333.871 88.3411 334.856 91.4963 336.584 94.0762V94.0771C338.288 96.6329 340.814 98.733 343.677 100.614C346.538 102.495 349.78 104.184 352.924 105.89C356.081 107.602 359.145 109.335 361.711 111.323C364.115 113.186 366.054 115.252 367.218 117.7L367.439 118.195C368.517 120.834 368.647 123.799 368.244 126.984C367.84 130.174 366.908 133.545 365.896 136.983C364.887 140.408 363.797 143.905 363.107 147.291C362.417 150.679 362.116 154.002 362.709 157.094L362.71 157.098C363.304 160.093 364.833 162.984 366.757 165.804C368.68 168.622 371.027 171.414 373.273 174.189C375.53 176.977 377.69 179.754 379.288 182.586C380.884 185.415 381.9 188.267 381.9 191.2C381.9 194.133 380.885 196.991 379.288 199.828C377.69 202.668 375.529 205.455 373.273 208.248C371.027 211.03 368.68 213.825 366.758 216.639C364.835 219.453 363.304 222.33 362.71 225.301C362.091 228.37 362.379 231.683 363.064 235.066C363.75 238.448 364.843 241.948 365.858 245.379C366.878 248.824 367.819 252.206 368.23 255.403C368.642 258.599 368.517 261.57 367.438 264.21C366.332 266.9 364.316 269.13 361.766 271.12C359.213 273.112 356.156 274.842 353 276.548C349.857 278.247 346.609 279.926 343.735 281.798C340.86 283.671 338.315 285.765 336.586 288.319L336.585 288.321C334.857 290.901 333.865 294.058 333.208 297.435C332.551 300.81 332.221 304.454 331.841 308.01C331.459 311.58 331.028 315.065 330.176 318.183C329.377 321.103 328.218 323.667 326.414 325.658L326.044 326.049C324.003 328.089 321.295 329.362 318.182 330.218C315.065 331.074 311.58 331.503 308.011 331.878C304.456 332.251 300.811 332.573 297.436 333.222C294.27 333.83 291.298 334.734 288.812 336.27L288.322 336.584C285.767 338.288 283.666 340.814 281.785 343.677C279.905 346.538 278.217 349.78 276.511 352.924C274.798 356.081 273.064 359.145 271.076 361.711C269.214 364.115 267.149 366.054 264.7 367.218L264.205 367.439C261.566 368.518 258.601 368.647 255.416 368.244C252.226 367.84 248.855 366.908 245.416 365.896C241.991 364.887 238.495 363.796 235.109 363.106C231.721 362.416 228.398 362.116 225.306 362.709L225.303 362.71C222.307 363.304 219.417 364.833 216.597 366.757C213.778 368.68 210.986 371.027 208.21 373.273C205.422 375.53 202.645 377.69 199.813 379.288C196.984 380.884 194.133 381.9 191.2 381.9C188.267 381.9 185.409 380.885 182.571 379.288C179.732 377.69 176.945 375.529 174.151 373.273C171.369 371.027 168.575 368.68 165.762 366.758C162.947 364.834 160.069 363.304 157.098 362.71H157.099C154.03 362.091 150.717 362.379 147.334 363.064C143.952 363.75 140.452 364.843 137.021 365.858C133.575 366.878 130.195 367.819 126.997 368.23C123.801 368.642 120.829 368.517 118.189 367.438H118.19C115.5 366.332 113.271 364.316 111.28 361.766C109.289 359.213 107.559 356.156 105.853 353C104.153 349.857 102.474 346.608 100.602 343.734C98.7284 340.859 96.6348 338.315 94.0801 336.586L94.0781 336.585L93.5879 336.27C91.1032 334.734 88.1318 333.824 84.9658 333.208C81.5905 332.551 77.9462 332.22 74.3906 331.84C70.8208 331.458 67.3355 331.028 64.2178 330.176C61.1021 329.324 58.3917 328.061 56.3506 326.044C54.311 324.003 53.0373 321.295 52.1816 318.182C51.325 315.065 50.8975 311.579 50.5225 308.01C50.1489 304.455 49.8276 300.811 49.1787 297.436C48.5701 294.27 47.6658 291.298 46.1309 288.812L45.8154 288.321C44.1115 285.766 41.5852 283.666 38.7227 281.785C35.8611 279.905 32.6196 278.217 29.4756 276.511C26.3188 274.798 23.2553 273.064 20.6895 271.076C18.1271 269.091 16.0927 266.875 14.9629 264.211C13.8827 261.57 13.7518 258.604 14.1553 255.416C14.559 252.226 15.492 248.855 16.5049 245.416C17.5137 241.991 18.6032 238.495 19.293 235.109C19.9832 231.721 20.284 228.398 19.6914 225.306L19.6904 225.303C19.0964 222.307 17.5663 219.417 15.6426 216.597C13.7198 213.778 11.3729 210.986 9.12598 208.21C6.86982 205.423 4.70989 202.645 3.1123 199.813C1.51596 196.984 0.500049 194.133 0.5 191.2C0.5 188.267 1.51573 185.409 3.1123 182.571C4.71003 179.732 6.87094 176.945 9.12695 174.151C11.3736 171.369 13.7202 168.575 15.6426 165.762C17.5658 162.947 19.0961 160.07 19.6904 157.099C20.3093 154.03 20.0205 150.717 19.335 147.334C18.6497 143.952 17.5571 140.452 16.542 137.021C15.5228 133.575 14.5804 130.195 14.1689 126.997C13.7578 123.802 13.8833 120.83 14.9629 118.19C16.0679 115.5 18.0834 113.27 20.6338 111.28C23.1864 109.288 26.244 107.559 29.4004 105.853C32.5438 104.153 35.7913 102.474 38.665 100.602C41.5403 98.7283 44.0854 96.635 45.8145 94.0801L45.8154 94.0781C47.5438 91.4985 48.5353 88.3427 49.1924 84.9658C49.8492 81.5905 50.1797 77.9462 50.5596 74.3906C50.9409 70.8208 51.3724 67.3355 52.2246 64.2178C53.076 61.1032 54.3376 58.3944 56.3535 56.3535C58.3947 54.3124 61.104 53.0377 64.2188 52.1816C67.3356 51.3251 70.8202 50.8975 74.3896 50.5225C77.9447 50.1489 81.5896 49.8276 84.9648 49.1787C88.3412 48.5296 91.4963 47.5435 94.0762 45.8154L94.0771 45.8164C96.633 44.1125 98.7329 41.5856 100.614 38.7227C102.495 35.861 104.184 32.6197 105.89 29.4756C107.602 26.319 109.335 23.2552 111.323 20.6895C113.308 18.1272 115.524 16.0917 118.188 14.9619L118.189 14.9629C120.83 13.8827 123.797 13.7518 126.984 14.1553C130.174 14.559 133.545 15.4921 136.983 16.5049C140.408 17.5137 143.905 18.6031 147.291 19.293C150.679 19.9831 154.002 20.2839 157.094 19.6914L157.098 19.6904C160.093 19.0964 162.984 17.5662 165.804 15.6426C168.622 13.7199 171.414 11.3729 174.189 9.12598C176.977 6.86983 179.754 4.70993 182.586 3.1123C185.415 1.51591 188.267 0.5 191.2 0.5Z" stroke="#4A5567"/>
</svg>
